HIERARCHY
ROOT Hips
{
	OFFSET -339.306915 540.749023 89.171944
	CHANNELS 6 Xposition Yposition Zposition Zrotation Yrotation Xrotation
	JOINT Spine
	{
		OFFSET 0.000000 2.080078 8.814247
		CHANNELS 6 Xposition Yposition Zposition Zrotation Yrotation Xrotation
		JOINT Spine1
		{
			OFFSET 0.000000 0.000000 8.844139
			CHANNELS 6 Xposition Yposition Zposition Zrotation Yrotation Xrotation
			JOINT Spine2
			{
				OFFSET 0.000000 0.000000 11.682266
				CHANNELS 6 Xposition Yposition Zposition Zrotation Yrotation Xrotation
				JOINT Spine3
				{
					OFFSET 0.000000 0.000000 11.746696
					CHANNELS 6 Xposition Yposition Zposition Zrotation Yrotation Xrotation
					JOINT Neck
					{
						OFFSET 0.000000 0.000000 17.658264
						CHANNELS 6 Xposition Yposition Zposition Zrotation Yrotation Xrotation
						JOINT Neck1
						{
							OFFSET 0.000000 0.000000 5.101517
							CHANNELS 6 Xposition Yposition Zposition Zrotation Yrotation Xrotation
							JOINT Head
							{
								OFFSET 0.000000 0.000000 5.101517
								CHANNELS 6 Xposition Yposition Zposition Zrotation Yrotation Xrotation
								JOINT HeadEnd
								{
									OFFSET 0.000000 0.000000 11.655090
									CHANNELS 6 Xposition Yposition Zposition Zrotation Yrotation Xrotation
									End Site
									{
										OFFSET 0.000000 0.000000 0.100006
									}
								}
							}
						}
					}
					JOINT RightShoulder
					{
						OFFSET -2.625397 0.000000 11.175217
						CHANNELS 6 Xposition Yposition Zposition Zrotation Yrotation Xrotation
						JOINT RightArm
						{
							OFFSET 0.000000 0.000000 10.434708
							CHANNELS 6 Xposition Yposition Zposition Zrotation Yrotation Xrotation
							JOINT RightForeArm
							{
								OFFSET 0.000000 0.000000 29.628418
								CHANNELS 6 Xposition Yposition Zposition Zrotation Yrotation Xrotation
								JOINT RightHand
								{
									OFFSET 0.000000 0.000000 22.857605
									CHANNELS 6 Xposition Yposition Zposition Zrotation Yrotation Xrotation
									JOINT RightHandThumb1
									{
										OFFSET -2.867310 -2.944275 3.959564
										CHANNELS 6 Xposition Yposition Zposition Zrotation Yrotation Xrotation
										JOINT RightHandThumb2
										{
											OFFSET 0.000000 0.000000 3.350403
											CHANNELS 6 Xposition Yposition Zposition Zrotation Yrotation Xrotation
											JOINT RightHandThumb3
											{
												OFFSET 0.000000 0.000000 3.756516
												CHANNELS 6 Xposition Yposition Zposition Zrotation Yrotation Xrotation
												JOINT RightHandThumb4
												{
													OFFSET 0.000000 0.000000 3.147339
													CHANNELS 6 Xposition Yposition Zposition Zrotation Yrotation Xrotation
													End Site
													{
														OFFSET 0.000000 0.000000 0.100006
													}
												}
											}
										}
									}
									JOINT RightHandIndex1
									{
										OFFSET -0.086761 -2.345276 10.030899
										CHANNELS 6 Xposition Yposition Zposition Zrotation Yrotation Xrotation
										JOINT RightHandIndex2
										{
											OFFSET 0.000000 0.000000 4.061096
											CHANNELS 6 Xposition Yposition Zposition Zrotation Yrotation Xrotation
											JOINT RightHandIndex3
											{
												OFFSET 0.000000 0.000000 3.248871
												CHANNELS 6 Xposition Yposition Zposition Zrotation Yrotation Xrotation
												JOINT RightHandIndex4
												{
													OFFSET 0.000000 0.000000 2.639709
													CHANNELS 6 Xposition Yposition Zposition Zrotation Yrotation Xrotation
													End Site
													{
														OFFSET 0.000000 0.000000 0.100006
													}
												}
											}
										}
									}
									JOINT RightHandMiddle1
									{
										OFFSET 0.104095 -0.006775 9.502945
										CHANNELS 6 Xposition Yposition Zposition Zrotation Yrotation Xrotation
										JOINT RightHandMiddle2
										{
											OFFSET 0.000000 0.000000 4.568726
											CHANNELS 6 Xposition Yposition Zposition Zrotation Yrotation Xrotation
											JOINT RightHandMiddle3
											{
												OFFSET 0.000000 0.000000 3.654984
												CHANNELS 6 Xposition Yposition Zposition Zrotation Yrotation Xrotation
												JOINT RightHandMiddle4
												{
													OFFSET 0.000000 0.000000 2.741241
													CHANNELS 6 Xposition Yposition Zposition Zrotation Yrotation Xrotation
													End Site
													{
														OFFSET 0.000000 0.000000 0.100006
													}
												}
											}
										}
									}
									JOINT RightHandRing1
									{
										OFFSET 0.086761 2.267456 8.921707
										CHANNELS 6 Xposition Yposition Zposition Zrotation Yrotation Xrotation
										JOINT RightHandRing2
										{
											OFFSET 0.000000 0.000000 4.061096
											CHANNELS 6 Xposition Yposition Zposition Zrotation Yrotation Xrotation
											JOINT RightHandRing3
											{
												OFFSET 0.000000 0.000000 3.654984
												CHANNELS 6 Xposition Yposition Zposition Zrotation Yrotation Xrotation
												JOINT RightHandRing4
												{
													OFFSET 0.000000 0.000000 2.741241
													CHANNELS 6 Xposition Yposition Zposition Zrotation Yrotation Xrotation
													End Site
													{
														OFFSET 0.000000 0.000000 0.100006
													}
												}
											}
										}
									}
									JOINT RightHandPinky1
									{
										OFFSET -0.173492 4.467224 7.976990
										CHANNELS 6 Xposition Yposition Zposition Zrotation Yrotation Xrotation
										JOINT RightHandPinky2
										{
											OFFSET 0.000000 0.000000 3.350403
											CHANNELS 6 Xposition Yposition Zposition Zrotation Yrotation Xrotation
											JOINT RightHandPinky3
											{
												OFFSET 0.000000 0.000000 2.842758
												CHANNELS 6 Xposition Yposition Zposition Zrotation Yrotation Xrotation
												JOINT RightHandPinky4
												{
													OFFSET 0.000000 0.000000 2.639709
													CHANNELS 6 Xposition Yposition Zposition Zrotation Yrotation Xrotation
													End Site
													{
														OFFSET 0.000000 0.000000 0.100006
													}
												}
											}
										}
									}
									JOINT RightForeArmEnd
									{
										OFFSET 0.000000 0.000000 0.000000
										CHANNELS 6 Xposition Yposition Zposition Zrotation Yrotation Xrotation
										End Site
										{
											OFFSET 0.000000 0.000000 0.100006
										}
									}
								}
								JOINT RightArmEnd
								{
									OFFSET 0.000000 0.000000 0.000000
									CHANNELS 6 Xposition Yposition Zposition Zrotation Yrotation Xrotation
									End Site
									{
										OFFSET 0.000000 0.000000 0.100006
									}
								}
							}
						}
					}
					JOINT LeftShoulder
					{
						OFFSET 2.625397 0.000000 11.175217
						CHANNELS 6 Xposition Yposition Zposition Zrotation Yrotation Xrotation
						JOINT LeftArm
						{
							OFFSET 0.000000 0.000000 10.813629
							CHANNELS 6 Xposition Yposition Zposition Zrotation Yrotation Xrotation
							JOINT LeftForeArm
							{
								OFFSET 0.000000 0.000000 28.724777
								CHANNELS 6 Xposition Yposition Zposition Zrotation Yrotation Xrotation
								JOINT LeftHand
								{
									OFFSET 0.644379 0.328857 25.716171
									CHANNELS 6 Xposition Yposition Zposition Zrotation Yrotation Xrotation
									JOINT LeftHandThumb1
									{
										OFFSET 2.867310 -2.944275 3.959564
										CHANNELS 6 Xposition Yposition Zposition Zrotation Yrotation Xrotation
										JOINT LeftHandThumb2
										{
											OFFSET 0.000000 0.000000 3.350403
											CHANNELS 6 Xposition Yposition Zposition Zrotation Yrotation Xrotation
											JOINT LeftHandThumb3
											{
												OFFSET 0.000000 0.000000 3.756516
												CHANNELS 6 Xposition Yposition Zposition Zrotation Yrotation Xrotation
												JOINT LeftHandThumb4
												{
													OFFSET 0.000000 0.000000 3.100006
													CHANNELS 6 Xposition Yposition Zposition Zrotation Yrotation Xrotation
													End Site
													{
														OFFSET 0.000000 0.000000 0.100006
													}
												}
											}
										}
									}
									JOINT LeftHandIndex1
									{
										OFFSET 0.086761 -2.345276 10.030899
										CHANNELS 6 Xposition Yposition Zposition Zrotation Yrotation Xrotation
										JOINT LeftHandIndex2
										{
											OFFSET 0.000000 0.000000 4.061096
											CHANNELS 6 Xposition Yposition Zposition Zrotation Yrotation Xrotation
											JOINT LeftHandIndex3
											{
												OFFSET 0.000000 0.000000 3.248871
												CHANNELS 6 Xposition Yposition Zposition Zrotation Yrotation Xrotation
												JOINT LeftHandIndex4
												{
													OFFSET 0.000000 0.000000 2.639709
													CHANNELS 6 Xposition Yposition Zposition Zrotation Yrotation Xrotation
													End Site
													{
														OFFSET 0.000000 0.000000 0.100006
													}
												}
											}
										}
									}
									JOINT LeftHandMiddle1
									{
										OFFSET -0.104095 -0.006775 9.502945
										CHANNELS 6 Xposition Yposition Zposition Zrotation Yrotation Xrotation
										JOINT LeftHandMiddle2
										{
											OFFSET 0.000000 0.000000 4.568726
											CHANNELS 6 Xposition Yposition Zposition Zrotation Yrotation Xrotation
											JOINT LeftHandMiddle3
											{
												OFFSET 0.000000 0.000000 3.654984
												CHANNELS 6 Xposition Yposition Zposition Zrotation Yrotation Xrotation
												JOINT LeftHandMiddle4
												{
													OFFSET 0.000000 0.000000 2.741241
													CHANNELS 6 Xposition Yposition Zposition Zrotation Yrotation Xrotation
													End Site
													{
														OFFSET 0.000000 0.000000 0.100006
													}
												}
											}
										}
									}
									JOINT LeftHandRing1
									{
										OFFSET -0.086761 2.267456 8.921707
										CHANNELS 6 Xposition Yposition Zposition Zrotation Yrotation Xrotation
										JOINT LeftHandRing2
										{
											OFFSET 0.000000 0.000000 4.061096
											CHANNELS 6 Xposition Yposition Zposition Zrotation Yrotation Xrotation
											JOINT LeftHandRing3
											{
												OFFSET 0.000000 0.000000 3.654984
												CHANNELS 6 Xposition Yposition Zposition Zrotation Yrotation Xrotation
												JOINT LeftHandRing4
												{
													OFFSET 0.000000 0.000000 2.741241
													CHANNELS 6 Xposition Yposition Zposition Zrotation Yrotation Xrotation
													End Site
													{
														OFFSET 0.000000 0.000000 0.100006
													}
												}
											}
										}
									}
									JOINT LeftHandPinky1
									{
										OFFSET 0.173492 4.467224 7.976990
										CHANNELS 6 Xposition Yposition Zposition Zrotation Yrotation Xrotation
										JOINT LeftHandPinky2
										{
											OFFSET 0.000000 0.000000 3.350403
											CHANNELS 6 Xposition Yposition Zposition Zrotation Yrotation Xrotation
											JOINT LeftHandPinky3
											{
												OFFSET 0.000000 0.000000 2.842758
												CHANNELS 6 Xposition Yposition Zposition Zrotation Yrotation Xrotation
												JOINT LeftHandPinky4
												{
													OFFSET 0.000000 0.000000 2.639709
													CHANNELS 6 Xposition Yposition Zposition Zrotation Yrotation Xrotation
													End Site
													{
														OFFSET 0.000000 0.000000 0.100006
													}
												}
											}
										}
									}
									JOINT LeftForeArmEnd
									{
										OFFSET 0.000000 0.000000 0.000000
										CHANNELS 6 Xposition Yposition Zposition Zrotation Yrotation Xrotation
										End Site
										{
											OFFSET 0.000000 0.000000 0.100006
										}
									}
								}
								JOINT LeftArmEnd
								{
									OFFSET 0.000000 0.000000 0.000000
									CHANNELS 6 Xposition Yposition Zposition Zrotation Yrotation Xrotation
									End Site
									{
										OFFSET 0.000000 0.000000 0.100006
									}
								}
							}
						}
					}
				}
			}
		}
	}
	JOINT RightUpLeg
	{
		OFFSET -11.289948 0.000000 0.000000
		CHANNELS 6 Xposition Yposition Zposition Zrotation Yrotation Xrotation
		JOINT RightLeg
		{
			OFFSET 0.000000 0.000000 -38.200329
			CHANNELS 6 Xposition Yposition Zposition Zrotation Yrotation Xrotation
			JOINT RightFoot
			{
				OFFSET 0.000000 0.000000 -39.900856
				CHANNELS 6 Xposition Yposition Zposition Zrotation Yrotation Xrotation
				JOINT RightToeBase
				{
					OFFSET 0.000000 -15.261658 0.000001
					CHANNELS 6 Xposition Yposition Zposition Zrotation Yrotation Xrotation
					JOINT RightToeBaseEnd
					{
						OFFSET 0.000000 -7.370728 0.000001
						CHANNELS 6 Xposition Yposition Zposition Zrotation Yrotation Xrotation
						End Site
						{
							OFFSET 0.000000 0.000000 0.100000
						}
					}
				}
				JOINT RightLegEnd
				{
					OFFSET 0.000000 0.000000 0.000000
					CHANNELS 6 Xposition Yposition Zposition Zrotation Yrotation Xrotation
					End Site
					{
						OFFSET 0.000000 0.000000 0.100000
					}
				}
			}
			JOINT RightUpLegEnd
			{
				OFFSET 0.000000 0.000000 0.000000
				CHANNELS 6 Xposition Yposition Zposition Zrotation Yrotation Xrotation
				End Site
				{
					OFFSET 0.000000 0.000000 0.099998
				}
			}
		}
	}
	JOINT LeftUpLeg
	{
		OFFSET 11.315674 0.000000 0.000000
		CHANNELS 6 Xposition Yposition Zposition Zrotation Yrotation Xrotation
		JOINT LeftLeg
		{
			OFFSET 0.000000 0.000000 -38.200329
			CHANNELS 6 Xposition Yposition Zposition Zrotation Yrotation Xrotation
			JOINT LeftFoot
			{
				OFFSET 0.000000 0.000000 -39.900856
				CHANNELS 6 Xposition Yposition Zposition Zrotation Yrotation Xrotation
				JOINT LeftToeBase
				{
					OFFSET 0.000000 -15.261658 0.000001
					CHANNELS 6 Xposition Yposition Zposition Zrotation Yrotation Xrotation
					JOINT LeftToeBaseEnd
					{
						OFFSET 0.000000 -7.539978 0.000001
						CHANNELS 6 Xposition Yposition Zposition Zrotation Yrotation Xrotation
						End Site
						{
							OFFSET 0.000000 0.000000 0.100000
						}
					}
				}
				JOINT LeftLegEnd
				{
					OFFSET 0.000000 0.000000 0.000000
					CHANNELS 6 Xposition Yposition Zposition Zrotation Yrotation Xrotation
					End Site
					{
						OFFSET 0.000000 0.000000 0.100000
					}
				}
			}
			JOINT LeftUpLegEnd
			{
				OFFSET 0.000000 0.000000 0.000000
				CHANNELS 6 Xposition Yposition Zposition Zrotation Yrotation Xrotation
				End Site
				{
					OFFSET 0.000000 0.000000 0.099998
				}
			}
		}
	}
}
MOTION
Frames: 2
Frame Time: 0.016667
-18.722015 -33.755920 88.123398 -5.659760 -4.542889 -5.168659 0.000015 2.080091 8.814264 0.059339 -1.128563 6.232496 -0.000038 0.000004 8.844135 -0.065074 -1.860780 3.415136 0.000002 -0.000076 11.682268 6.893564 1.443144 3.743231 -0.000016 0.000005 11.746706 2.548544 4.233845 3.800640 0.000004 0.000008 17.658310 7.409095 15.580058 5.210213 0.000007 0.000026 5.101536 1.318244 1.078611 -3.449845 0.000001 0.000015 5.101538 0.652405 1.191940 -16.061045 0.000012 0.000005 11.655098 -0.000001 -0.000000 -0.000001 -2.625397 0.000005 11.175227 12.057811 -78.428535 0.757753 -0.000023 -0.000004 10.434715 -28.936578 -70.267415 45.919608 -0.000010 -0.000008 29.628464 15.131951 -0.418982 36.599832 0.000038 -0.000017 22.857594 7.653525 36.782413 -1.139182 -2.867355 -2.944290 3.959541 33.202844 -11.604884 61.041831 0.000000 -0.000017 3.350404 -0.589999 0.577987 -1.181733 -0.000005 -0.000021 3.756525 -0.408480 0.402643 -0.821125 0.000013 -0.000003 3.147355 0.000001 0.000001 -0.000002 -0.086800 -2.345268 10.030899 18.238381 36.840449 34.585383 0.000039 -0.000025 4.061102 -0.475422 -0.000260 0.000672 0.000013 0.000004 3.248863 0.022157 0.000002 -0.000647 0.000005 -0.000002 2.639716 -0.000001 0.000000 0.000001 0.104067 -0.006786 9.502914 12.203743 37.309499 24.191326 0.000034 0.000008 4.568749 -0.630473 -0.000003 -0.000052 -0.000012 -0.000005 3.654968 -0.111009 -0.000001 -0.005292 0.000008 -0.000004 2.741244 0.000002 0.000000 0.000000 0.086769 2.267455 8.921684 1.504560 35.012591 9.729075 0.000008 -0.000006 4.061099 1.170706 -0.000169 0.000053 0.000014 0.000016 3.654973 0.132598 -0.000001 0.001377 0.000005 -0.000001 2.741264 -0.000000 -0.000001 0.000001 -0.173531 4.467240 7.976954 -9.345428 28.375971 -2.754452 0.000023 -0.000034 3.350407 2.123846 -0.000304 0.000154 0.000001 0.000013 2.842777 0.104131 0.000057 0.014080 -0.000015 0.000012 2.639709 -0.000001 -0.000000 -0.000000 -0.000032 -0.000000 0.000007 0.000002 -0.000001 -0.000000 -0.000007 0.000001 0.000026 0.000000 0.000000 -0.000002 2.625431 0.000003 11.175228 -9.765244 83.246776 -0.274680 0.000023 -0.000007 10.813644 21.405084 71.727518 20.505591 -0.000027 0.000008 28.724779 -29.596152 5.046823 33.330910 0.644363 0.328911 25.716190 -10.179723 -20.461720 -6.654795 2.867325 -2.944290 3.959610 -32.811095 12.502602 59.373475 0.000010 0.000018 3.350410 2.430898 -2.236659 -4.767083 -0.000006 -0.000004 3.756525 1.668238 -1.574830 -3.299967 -0.000037 -0.000002 3.100019 0.000000 -0.000002 0.000001 0.086754 -2.345266 10.030899 3.600579 -32.646928 16.225502 0.000015 -0.000010 4.061094 -0.500830 0.000087 -0.023752 -0.000008 -0.000021 3.248886 -0.001189 -0.000047 -0.007795 -0.000012 0.000001 2.639708 -0.000000 -0.000000 -0.000000 -0.104099 -0.006764 9.502937 -1.629555 -29.396765 14.301586 0.000004 0.000002 4.568741 -0.559529 0.000346 -0.173141 0.000001 0.000014 3.655005 -0.054474 0.000034 -0.162019 -0.000004 0.000001 2.741244 -0.000000 0.000001 -0.000000 -0.086758 2.267429 8.921722 -9.634259 -24.377230 12.244989 0.000013 0.000001 4.061113 1.087408 0.000011 0.021505 -0.000008 -0.000026 3.654982 0.070561 -0.000001 0.017230 -0.000012 0.000013 2.741257 -0.000003 0.000001 0.000001 0.173485 4.467254 7.977005 -17.690043 -19.709032 8.311515 0.000015 0.000025 3.350393 2.130669 0.000005 -0.000044 0.000045 0.000015 2.842770 0.110461 0.000001 0.000092 -0.000014 -0.000009 2.639708 0.000001 -0.000000 -0.000000 -0.000005 0.000002 -0.000014 0.000001 -0.000003 0.000000 -0.000014 0.000069 0.000030 -0.000001 -0.000000 0.000000 -11.289960 0.000004 0.000015 9.928360 1.854156 -7.869497 -0.000014 0.000026 -38.200321 0.238066 -0.127715 28.211658 -0.000001 -0.000018 -39.900841 -14.353065 2.861985 12.345920 -0.000013 -15.261641 0.000022 -0.701867 1.325044 -21.970782 0.000002 -7.370672 -0.000000 0.000001 -0.000000 0.000000 0.000006 0.000058 0.000002 0.000001 0.000001 0.000001 0.000006 0.000004 0.000002 -0.000001 0.000000 0.000001 11.315613 0.000056 0.000007 5.432674 5.065825 -0.447804 -0.000058 0.000078 -38.200306 0.579239 -0.126164 12.287470 -0.000005 -0.000025 -39.900852 6.999927 -0.862770 19.430961 0.000009 -15.261665 0.000006 -1.038062 -0.004536 -22.150611 0.000007 -7.539916 0.000001 -0.000000 -0.000000 0.000000 -0.000005 -0.000061 0.000001 -0.000000 0.000000 -0.000000 0.000000 0.000062 0.000002 -0.000000 -0.000000 -0.000001 
-18.655212 -33.647583 88.037888 -4.167918 -4.545129 -5.351553 0.000010 2.080057 8.814254 0.073199 -1.100700 6.502097 -0.000044 -0.000028 8.844151 0.038937 -1.706174 3.575504 0.000002 -0.000003 11.682288 6.696005 1.367815 3.745890 0.000004 -0.000015 11.746702 2.516196 4.049526 3.718962 0.000015 0.000009 17.658272 6.763778 14.435764 3.994131 -0.000006 0.000021 5.101509 1.123248 0.958206 -3.864370 -0.000002 -0.000008 5.101558 0.633793 0.939695 -15.892530 -0.000005 -0.000009 11.655120 0.000002 0.000001 -0.000001 -2.625397 -0.000005 11.175195 12.270117 -78.069008 0.718202 -0.000015 -0.000015 10.434700 -30.495350 -70.542084 46.300497 -0.000031 -0.000008 29.628443 15.423318 -0.517186 34.997579 -0.000015 -0.000072 22.857578 6.558047 37.295165 -1.019625 -2.867317 -2.944290 3.959557 33.134200 -11.752123 60.762941 -0.000013 0.000003 3.350410 -0.889504 0.862339 -1.776128 -0.000010 0.000013 3.756511 -0.614859 0.601771 -1.231987 -0.000007 -0.000011 3.147321 0.000001 0.000000 0.000001 -0.086758 -2.345276 10.030914 18.381318 37.162134 34.663227 -0.000029 0.000005 4.061090 -0.475224 -0.000437 0.000680 0.000013 0.000010 3.248867 0.022342 0.000000 -0.000665 0.000031 0.000015 2.639708 -0.000003 0.000000 -0.000000 0.104094 -0.006798 9.502960 12.390245 37.783138 24.315566 -0.000006 -0.000020 4.568715 -0.632529 -0.241096 0.002607 0.000004 -0.000029 3.654978 -0.112739 0.133734 -0.005614 -0.000013 0.000074 2.741267 0.000000 0.000003 -0.000001 0.086735 2.267457 8.921722 1.595268 35.476255 9.788151 -0.000013 0.000030 4.061103 1.173904 -0.000177 0.000059 0.000002 0.000001 3.654995 0.135088 0.000002 0.001421 -0.000015 0.000007 2.741276 -0.000000 0.000002 -0.000003 -0.173500 4.467230 7.976971 -9.306967 28.877989 -2.652491 -0.000002 -0.000013 3.350405 2.126287 -0.000401 0.000149 -0.000014 -0.000013 2.842776 0.106163 0.000047 0.014305 -0.000004 -0.000022 2.639720 0.000003 0.000001 0.000001 -0.000028 -0.000000 0.000003 0.000002 -0.000002 0.000001 0.000004 0.000006 0.000029 -0.000001 -0.000000 0.000000 2.625381 0.000009 11.175213 -10.191847 82.904133 -0.322054 0.000011 -0.000011 10.813625 31.331775 70.404422 32.322894 -0.000011 -0.000031 28.724703 -27.178086 3.432340 35.132236 0.644379 0.328777 25.716171 -9.349737 -19.873899 -6.279331 2.867317 -2.944275 3.959549 -32.873028 12.350640 59.650508 0.000004 0.000031 3.350440 2.116807 -1.968279 -4.165760 0.000005 -0.000007 3.756525 1.454740 -1.383272 -2.884894 -0.000007 0.000002 3.100020 0.000000 0.000000 -0.000000 0.086754 -2.345264 10.030899 3.458918 -33.710276 15.916282 0.000011 0.000010 4.061123 -0.501005 0.039567 -0.024628 0.000002 -0.000011 3.248896 -0.001374 -0.022065 -0.008021 0.000015 0.000004 2.639729 -0.000000 0.000000 -0.000001 -0.104115 -0.006781 9.502953 -1.813048 -30.349618 14.153534 -0.000009 -0.000008 4.568740 -0.560591 0.000380 -0.176734 0.000039 0.000007 3.654989 -0.055419 0.000029 -0.165370 0.000001 -0.000053 2.741244 -0.000002 -0.000001 -0.000001 -0.086765 2.267477 8.921700 -9.816420 -25.083294 12.259886 -0.000010 -0.000025 4.061098 1.089617 -0.027970 0.022249 -0.000005 0.000004 3.655012 0.072862 0.014716 0.018241 0.000010 -0.000000 2.741246 -0.000001 0.000000 0.000000 0.173485 4.467216 7.976997 -17.823527 -20.161923 8.370660 0.000001 -0.000007 3.350403 2.134061 -0.000002 -0.000042 0.000012 0.000000 2.842767 0.113333 0.000000 0.000097 0.000010 -0.000003 2.639713 0.000001 0.000001 -0.000000 0.000011 0.000018 0.000021 -0.000002 -0.000002 0.000000 -0.000001 0.000001 0.000011 -0.000001 0.000001 0.000004 -11.289963 0.000065 0.000000 8.924819 1.944727 -7.882806 0.000002 0.000055 -38.200325 0.249857 -0.136847 28.709819 -0.000006 0.000015 -39.900848 -14.842133 2.665155 11.998565 0.000001 -15.261719 0.000011 -0.691339 1.317899 -21.906076 0.000011 -7.370668 -0.000000 0.000000 0.000000 0.000000 -0.000008 0.000004 0.000001 -0.000001 0.000000 0.000001 0.000003 0.000007 -0.000003 -0.000001 -0.000000 0.000001 11.315635 0.000057 -0.000010 5.467496 5.171078 -1.373942 -0.000019 0.000072 -38.200329 0.622025 -0.154841 13.978126 0.000017 0.000001 -39.900867 8.520549 0.117245 18.225352 -0.000028 -15.261637 0.000002 -1.117539 -0.017168 -22.737094 0.000007 -7.539984 0.000003 0.000001 0.000000 -0.000000 0.000003 0.000004 0.000000 -0.000001 -0.000000 0.000000 -0.000001 0.000000 -0.000002 -0.000000 -0.000000 -0.000000 
